<svg width="24" height="25" viewBox="0 0 24 25" fill="none" xmlns="http://www.w3.org/2000/svg">
<path d="M18 14.4055H20.0156V17.4055H23.0156V19.3743H20.0156V22.3743H18V19.3743H15V17.4055H18V14.4055ZM12 3.38989C13.4375 3.38989 14.7734 3.56958 16.0078 3.92896C17.2422 4.28833 18.2188 4.77271 18.9375 5.38208C19.6562 5.99146 20.0156 6.66333 20.0156 7.39771C20.0156 8.13208 19.6562 8.80396 18.9375 9.41333C18.2188 10.0227 17.2422 10.5071 16.0078 10.8665C14.7734 11.2258 13.4375 11.4055 12 11.4055C10.5625 11.4055 9.22656 11.2258 7.99219 10.8665C6.75781 10.5071 5.78125 10.0227 5.0625 9.41333C4.34375 8.80396 3.98438 8.13208 3.98438 7.39771C3.98438 6.66333 4.34375 5.99146 5.0625 5.38208C5.78125 4.77271 6.75781 4.28833 7.99219 3.92896C9.22656 3.56958 10.5625 3.38989 12 3.38989ZM3.98438 9.38989C3.98438 10.1086 4.34375 10.7727 5.0625 11.3821C5.78125 11.9915 6.75781 12.4758 7.99219 12.8352C9.22656 13.1946 10.5625 13.3743 12 13.3743C13.4375 13.3743 14.7734 13.1946 16.0078 12.8352C17.2422 12.4758 18.2188 11.9915 18.9375 11.3821C19.6562 10.7727 20.0156 10.1086 20.0156 9.38989V12.4836L18.9844 12.3899C17.7031 12.3899 16.5547 12.7571 15.5391 13.4915C14.5234 14.2258 13.7969 15.1711 13.3594 16.3274L12 16.3743C10.5625 16.3743 9.22656 16.1946 7.99219 15.8352C6.75781 15.4758 5.78125 14.9915 5.0625 14.3821C4.34375 13.7727 3.98438 13.1086 3.98438 12.3899V9.38989ZM3.98438 14.4055C3.98438 15.1243 4.34375 15.7883 5.0625 16.3977C5.78125 17.0071 6.75781 17.4915 7.99219 17.8508C9.22656 18.2102 10.5625 18.3899 12 18.3899H12.9844C12.9844 19.4211 13.2344 20.3899 13.7344 21.2961L12 21.3899C10.5625 21.3899 9.22656 21.2102 7.99219 20.8508C6.75781 20.4915 5.78125 20.0071 5.0625 19.3977C4.34375 18.7883 3.98438 18.1243 3.98438 17.4055V14.4055Z" fill="#888888"/>
</svg>
