<svg width="30" height="30" viewBox="0 0 30 30" fill="none" xmlns="http://www.w3.org/2000/svg">
<rect width="30" height="30" rx="15" fill="#1AB394"/>
<path d="M21.0116 13.4883C21.3632 14.0273 21.4452 14.8125 21.2577 15.8438C21.0937 16.7578 20.7538 17.7539 20.2382 18.832C19.7695 19.8398 19.248 20.7012 18.6738 21.416C18.0995 22.1309 17.6191 22.4883 17.2323 22.4883C16.8456 22.4883 16.5234 22.4414 16.2656 22.3477C16.1015 22.2773 15.914 22.1719 15.7031 22.0312C15.5624 21.9375 15.4452 21.8672 15.3515 21.8203C15.2577 21.7734 15.1406 21.75 14.9999 21.75C14.8593 21.75 14.7421 21.7734 14.6484 21.8203C14.5546 21.8672 14.4374 21.9375 14.2968 22.0312C14.0859 22.1719 13.8984 22.2773 13.7343 22.3477C13.4765 22.4414 13.1542 22.4883 12.7675 22.4883C12.3808 22.4883 11.9003 22.1309 11.3261 21.416C10.7519 20.7012 10.2304 19.8398 9.76164 18.832C9.24602 17.7539 8.90618 16.7578 8.74211 15.8438C8.55461 14.8125 8.63664 14.0273 8.98821 13.4883C9.69133 12.457 10.5702 11.8359 11.6249 11.625C12.5156 11.4375 13.3945 11.5664 14.2616 12.0117V9.76172C13.4648 10.1836 12.7382 10.4414 12.082 10.5352C11.5429 10.6289 11.0507 10.5938 10.6054 10.4297C10.2538 10.2891 9.94914 10.0898 9.69133 9.83203C9.50383 9.62109 9.33977 9.39844 9.19914 9.16406L9.09368 8.84766L9.30461 8.56641C9.51555 8.37891 9.73821 8.22656 9.97258 8.10938C10.3241 7.94531 10.6874 7.86328 11.0624 7.86328C11.5312 7.86328 12.0116 8.00391 12.5038 8.28516C13.0663 8.58984 13.6523 9.08203 14.2616 9.76172V8.25H15.7382V12.0117C16.6054 11.5664 17.4843 11.4375 18.3749 11.625C19.4296 11.8359 20.3085 12.457 21.0116 13.4883Z" fill="white"/>
</svg>
