<svg width="12" height="13" viewBox="0 0 12 13" fill="none" xmlns="http://www.w3.org/2000/svg">
<g clip-path="url(#clip0_46_3284)">
<g clip-path="url(#clip1_46_3284)">
<path d="M2.5 10.5V9H1V8.25H2.5V6.75H3.25V8.25H4.75V9H3.25V10.5H2.5ZM5.5 10V7.5H4V6H1.5V3.75C1.5 3.54167 1.57292 3.36458 1.71875 3.21875C1.86458 3.07292 2.04167 3 2.25 3H7.5C7.68333 3 7.85 3.04792 8 3.14375C8.15 3.23958 8.27917 3.3625 8.3875 3.5125L10.5 6.5L8.3875 9.4875C8.27917 9.6375 8.15 9.76042 8 9.85625C7.85 9.95208 7.68333 10 7.5 10H5.5Z" fill="#EA9F77"/>
</g>
</g>
<defs>
<clipPath id="clip0_46_3284">
<rect width="12" height="12" fill="white" transform="translate(0 0.5)"/>
</clipPath>
<clipPath id="clip1_46_3284">
<rect width="12" height="12" fill="white" transform="translate(0 0.5)"/>
</clipPath>
</defs>
</svg>
