<svg width="30" height="30" viewBox="0 0 30 30" fill="none" xmlns="http://www.w3.org/2000/svg">
<rect width="30" height="30" rx="15" fill="white" fill-opacity="0.1"/>
<path d="M22.4883 19.5C22.4883 20.3203 22.1953 21.0234 21.6094 21.6094C21.0234 22.1953 20.3203 22.4883 19.5 22.4883H16.5117C15.668 22.4883 14.9531 22.1953 14.3672 21.6094C13.7812 21.0234 13.4883 20.3203 13.4883 19.5V17.9883H22.4883V19.5ZM8.98828 8.25H16.5117C16.9102 8.25 17.2559 8.39648 17.5488 8.68945C17.8418 8.98242 17.9883 9.33984 17.9883 9.76172V16.5117H12.0117V20.2383H8.98828C8.58984 20.2383 8.24414 20.0918 7.95117 19.7988C7.6582 19.5059 7.51172 19.1602 7.51172 18.7617V9.76172C7.51172 9.33984 7.6582 8.98242 7.95117 8.68945C8.24414 8.39648 8.58984 8.25 8.98828 8.25ZM8.98828 10.5V12.0117H10.5V10.5H8.98828ZM16.5117 12.0117V10.5H12.0117V12.0117H16.5117ZM8.98828 13.4883V15H10.5V13.4883H8.98828ZM12.0117 13.4883V15H16.5117V13.4883H12.0117ZM8.98828 16.5117V17.9883H10.5V16.5117H8.98828Z" fill="#A7B1C2"/>
</svg>
