<svg width="30" height="30" viewBox="0 0 30 30" fill="none" xmlns="http://www.w3.org/2000/svg">
<rect width="30" height="30" rx="15" fill="white" fill-opacity="0.1"/>
<path d="M13.2773 17.3555C14.6602 16.793 15.9844 16.5117 17.25 16.5117C18.5156 16.5117 19.8281 16.793 21.1875 17.3555C22.5703 17.8945 23.2617 18.6094 23.2617 19.5V21.0117H11.2383V19.5C11.2383 18.6094 11.918 17.8945 13.2773 17.3555ZM10.5 13.4883H12.75V15H10.5V17.25H8.98828V15H6.73828V13.4883H8.98828V11.2383H10.5V13.4883ZM19.3594 14.1211C18.7734 14.707 18.0703 15 17.25 15C16.4297 15 15.7266 14.707 15.1406 14.1211C14.5547 13.5352 14.2617 12.832 14.2617 12.0117C14.2617 11.1914 14.5547 10.4883 15.1406 9.90234C15.7266 9.29297 16.4297 8.98828 17.25 8.98828C18.0703 8.98828 18.7734 9.29297 19.3594 9.90234C19.9453 10.4883 20.2383 11.1914 20.2383 12.0117C20.2383 12.832 19.9453 13.5352 19.3594 14.1211Z" fill="white"/>
</svg>
